<svg xmlns="http://www.w3.org/2000/svg" xmlns:xlink="http://www.w3.org/1999/xlink" width="500" zoomAndPan="magnify" viewBox="0 0 375 374.999991" height="500" preserveAspectRatio="xMidYMid meet" version="1.0"><defs><clipPath id="3aaf79b5e0"><path d="M 145 187 L 343 187 L 343 320.242188 L 145 320.242188 Z M 145 187 " clip-rule="nonzero"/></clipPath><clipPath id="b07a83e3c6"><path d="M 33 54.742188 L 230 54.742188 L 230 188 L 33 188 Z M 33 54.742188 " clip-rule="nonzero"/></clipPath></defs><rect x="-37.5" width="450" fill="#ffffff" y="-37.499999" height="449.999989" fill-opacity="1"/><rect x="-37.5" width="450" fill="#ffffff" y="-37.499999" height="449.999989" fill-opacity="1"/><path fill="#8ec6ff" d="M 33.800781 187.492188 L 33.132812 187.492188 L 33.132812 217.511719 C 33.132812 218.84375 33.132812 219.511719 33.132812 219.511719 C 33.800781 224.179688 33.800781 225.515625 35.800781 229.519531 C 37.800781 234.855469 39.804688 237.523438 43.804688 241.527344 C 44.472656 242.191406 45.140625 242.859375 45.808594 243.527344 C 46.476562 243.527344 47.140625 243.527344 47.140625 244.195312 C 50.476562 246.863281 69.160156 256.867188 74.496094 260.203125 C 75.832031 260.871094 77.832031 262.207031 79.164062 262.871094 C 81.167969 264.207031 83.167969 264.875 84.503906 266.207031 L 110.523438 280.882812 C 111.855469 281.550781 113.859375 282.886719 115.859375 283.550781 C 116.527344 284.21875 117.195312 284.886719 117.859375 284.886719 L 123.199219 288.222656 C 124.53125 288.890625 125.199219 289.554688 125.867188 288.890625 C 134.539062 283.550781 143.214844 278.882812 151.886719 273.546875 L 165.894531 265.539062 C 167.230469 264.875 167.230469 265.539062 167.230469 264.207031 C 165.894531 264.207031 151.21875 255.535156 150.550781 254.867188 L 125.867188 240.859375 C 123.867188 239.523438 122.53125 238.855469 121.195312 238.191406 C 119.863281 237.523438 118.527344 236.855469 117.195312 235.523438 C 109.1875 230.851562 100.515625 226.183594 91.84375 221.511719 C 81.167969 214.84375 69.160156 208.171875 58.484375 202.167969 L 46.476562 194.828125 C 44.472656 194.164062 43.140625 192.828125 41.804688 192.160156 Z M 33.800781 187.492188 " fill-opacity="1" fill-rule="evenodd"/><path fill="#8ec6ff" d="M 341.355469 187.492188 L 342.023438 187.492188 C 342.023438 183.492188 342.691406 165.480469 342.023438 163.476562 C 342.023438 161.476562 342.023438 159.476562 342.023438 157.472656 C 342.023438 146.132812 336.019531 136.128906 327.34375 130.125 C 326.679688 129.457031 326.011719 129.457031 325.34375 128.789062 L 303.996094 116.78125 C 302.660156 116.113281 301.324219 115.449219 299.992188 114.78125 L 284.648438 105.441406 C 276.640625 100.773438 266.632812 95.433594 257.960938 90.097656 C 256.625 89.429688 255.292969 88.765625 253.957031 88.097656 C 252.625 87.429688 251.289062 86.097656 249.953125 85.429688 C 248.621094 86.097656 215.261719 106.109375 207.925781 109.445312 C 208.589844 110.777344 209.257812 110.777344 209.925781 110.777344 L 241.28125 129.457031 C 242.617188 130.125 243.949219 130.789062 245.285156 131.457031 C 246.621094 132.125 247.953125 132.792969 249.289062 134.125 C 252.625 135.460938 255.292969 136.792969 257.960938 138.796875 C 260.628906 140.796875 263.296875 142.132812 265.964844 143.464844 C 274.640625 148.800781 283.3125 153.472656 291.320312 158.140625 C 300.660156 163.476562 311.332031 169.480469 320.671875 174.816406 C 322.007812 176.152344 323.34375 176.820312 324.675781 177.488281 C 326.679688 178.820312 341.355469 186.824219 341.355469 187.492188 Z M 341.355469 187.492188 " fill-opacity="1" fill-rule="evenodd"/><g clip-path="url(#3aaf79b5e0)"><path fill="#0c7ff2" d="M 342.023438 187.492188 L 341.359375 187.492188 L 311.335938 204.835938 C 302.664062 210.171875 291.988281 215.507812 283.316406 220.847656 L 243.953125 244.195312 C 237.949219 247.53125 231.277344 250.863281 225.273438 254.867188 L 209.925781 263.539062 C 209.261719 264.207031 207.925781 264.875 207.257812 265.539062 C 205.257812 266.207031 203.253906 267.542969 201.253906 268.875 L 176.570312 282.886719 C 174.566406 284.21875 146.546875 300.230469 145.878906 300.898438 C 145.878906 300.898438 145.878906 300.898438 145.878906 301.5625 L 159.222656 308.902344 C 160.558594 309.566406 161.226562 310.234375 162.558594 310.902344 L 169.230469 314.90625 C 170.566406 315.570312 171.898438 316.238281 173.234375 316.90625 C 177.238281 318.90625 181.238281 319.574219 185.910156 320.242188 L 189.246094 320.242188 C 193.25 319.574219 196.582031 318.90625 199.917969 317.574219 C 203.253906 316.238281 213.261719 310.234375 217.265625 308.234375 L 241.949219 294.226562 C 243.953125 292.890625 245.953125 291.558594 248.621094 290.222656 L 262.632812 282.21875 C 269.972656 277.546875 279.3125 272.878906 286.648438 268.207031 C 295.324219 262.871094 306 256.867188 314.671875 252.199219 C 317.339844 250.199219 326.011719 245.527344 328.015625 244.195312 C 328.679688 243.527344 329.347656 243.527344 329.347656 242.859375 C 330.015625 242.191406 330.683594 242.191406 331.351562 241.527344 C 333.351562 240.191406 334.6875 238.191406 336.019531 236.1875 C 342.023438 226.851562 342.023438 220.847656 342.023438 209.503906 C 342.023438 202.167969 342.023438 194.828125 342.023438 187.492188 Z M 342.023438 187.492188 " fill-opacity="1" fill-rule="evenodd"/></g><g clip-path="url(#b07a83e3c6)"><path fill="#0c7ff2" d="M 33.132812 187.492188 L 33.800781 187.492188 L 56.484375 174.148438 C 57.148438 173.484375 57.148438 173.484375 57.816406 172.816406 L 79.164062 160.808594 C 80.5 160.140625 81.167969 159.472656 82.5 158.808594 L 94.511719 152.136719 C 96.511719 150.800781 98.511719 149.46875 100.515625 148.132812 L 226.609375 75.421875 C 227.273438 75.421875 229.277344 74.085938 229.945312 73.421875 L 209.261719 62.078125 C 207.925781 61.414062 206.59375 60.746094 205.257812 60.078125 C 200.589844 56.742188 195.25 55.410156 190.582031 54.742188 L 185.242188 54.742188 C 180.574219 55.410156 175.902344 56.742188 171.234375 58.746094 L 133.207031 80.757812 C 126.535156 84.761719 119.195312 88.761719 112.523438 92.765625 L 85.171875 108.777344 C 83.835938 109.441406 83.167969 110.109375 81.835938 110.777344 L 71.160156 116.78125 C 69.160156 118.113281 66.488281 119.449219 64.488281 120.785156 C 59.152344 123.453125 49.8125 128.789062 45.808594 131.457031 C 38.46875 136.792969 34.464844 145.464844 33.132812 154.804688 C 33.132812 154.804688 33.132812 154.804688 33.132812 155.472656 Z M 33.132812 187.492188 " fill-opacity="1" fill-rule="evenodd"/></g><path fill="#ffce00" d="M 164.5625 187.492188 C 164.5625 181.488281 167.234375 175.484375 171.234375 171.480469 C 175.238281 167.476562 180.574219 164.808594 186.582031 164.808594 C 193.253906 164.808594 197.253906 165.476562 202.59375 170.148438 C 204.59375 171.480469 205.261719 172.148438 206.59375 174.148438 C 211.933594 182.152344 211.933594 192.828125 206.59375 200.832031 C 205.929688 200.832031 205.261719 201.5 205.261719 202.167969 L 203.925781 203.5 C 201.925781 205.5 199.921875 206.835938 197.253906 208.171875 C 187.914062 212.171875 177.90625 210.171875 171.234375 203.5 C 167.234375 199.5 164.5625 193.496094 164.5625 187.492188 Z M 145.214844 176.148438 C 139.878906 176.148438 133.875 176.148438 128.539062 176.148438 C 123.867188 176.148438 121.867188 177.484375 119.195312 180.152344 L 106.519531 196.832031 C 103.851562 200.164062 103.851562 201.5 103.851562 204.835938 C 103.851562 210.171875 108.523438 214.839844 113.859375 214.839844 C 120.53125 214.839844 121.867188 212.839844 125.203125 208.171875 C 125.867188 207.503906 126.535156 206.835938 127.203125 205.5 C 127.871094 204.835938 132.539062 198.832031 133.207031 198.164062 L 145.214844 198.164062 C 147.21875 206.835938 151.886719 214.175781 157.890625 219.511719 C 161.226562 222.847656 165.898438 225.515625 170.566406 227.515625 C 183.246094 233.519531 198.589844 231.519531 210.597656 224.847656 C 215.269531 221.511719 217.9375 218.84375 221.273438 214.839844 L 224.609375 210.839844 C 225.273438 209.503906 226.609375 207.503906 227.945312 204.835938 C 227.945312 203.5 229.945312 200.164062 229.945312 198.164062 C 235.949219 198.164062 241.953125 198.164062 247.292969 198.164062 C 253.964844 198.164062 255.964844 197.496094 259.300781 192.828125 C 261.96875 189.492188 264.636719 186.15625 267.304688 182.820312 C 270.640625 178.152344 273.308594 175.484375 273.308594 170.148438 C 273.308594 164.808594 268.640625 159.472656 263.304688 159.472656 C 259.300781 159.472656 255.964844 160.140625 253.964844 164.144531 C 251.960938 166.144531 249.960938 168.144531 248.625 170.8125 L 244.625 175.484375 C 243.957031 176.816406 243.289062 176.148438 241.953125 176.148438 C 237.953125 176.148438 233.949219 176.148438 229.945312 176.148438 C 229.945312 174.816406 227.945312 170.8125 227.277344 169.480469 C 225.941406 165.476562 223.273438 160.808594 219.9375 158.140625 C 219.269531 157.472656 219.269531 156.804688 217.9375 155.472656 C 213.265625 151.46875 209.929688 148.800781 203.925781 146.800781 C 193.917969 142.796875 181.910156 142.128906 171.902344 146.800781 C 167.898438 148.132812 167.234375 148.132812 163.898438 150.132812 C 161.226562 152.136719 157.226562 155.472656 155.222656 158.140625 L 151.222656 163.476562 C 150.554688 164.144531 149.886719 164.808594 149.21875 166.144531 L 147.886719 169.480469 C 146.550781 171.480469 145.882812 174.148438 145.214844 176.148438 Z M 145.214844 176.148438 " fill-opacity="1" fill-rule="evenodd"/></svg>